# xmcd CD database file
#
# Track frame offsets:
#	183
#	23855
#	50208
#	69130
#	92130
#	111235
#	129900
#	148815
#	171793
#	196093
#	218833
#	242138
#	258473
#	275943
#	292223
#
# Disc length: 4091 seconds
#
# Revision: 0
# Processed by: cddbd v1.5.2PL0 Copyright (c) Steve Scherf et al.
# Submitted via: CDex 1.70beta2
#
DISCID=ef0ff90f
DTITLE=Barney Bigard - Claude Luter - Paris, Dec. 14 and 15, 1960
DYEAR=1990
DGENRE=Jazz
TTITLE0=Struttin' with Some Barbecue
TTITLE1=Mood Indigo
TTITLE2=Double Gin Stomp
TTITLE3=Honeysuckle Rose
TTITLE4=Sweet Lorraine
TTITLE5=Royal Garden Blues
TTITLE6=Double Gin Stomp
TTITLE7=China Boy
TTITLE8=Doo Boo Loo Blues
TTITLE9=Honeysuckle Rose
TTITLE10=China Boy
TTITLE11=C Jam Blues
TTITLE12=Sobbin' and Cryin'
TTITLE13='s Wonderful
TTITLE14=Promenade aux Champs Elysees
EXTD=YEAR: 1990
EXTT0=
EXTT1=
EXTT2=
EXTT3=
EXTT4=
EXTT5=
EXTT6=
EXTT7=
EXTT8=
EXTT9=
EXTT10=
EXTT11=
EXTT12=
EXTT13=
EXTT14=
PLAYORDER=
